<svg xmlns="http://www.w3.org/2000/svg" xmlns:xlink="http://www.w3.org/1999/xlink" width="1280" height="720" viewBox="0 0 1280 720">
  <defs>
    <clipPath id="clip-layer_question_end">
      <rect width="1280" height="720"/>
    </clipPath>
  </defs>
  <g id="layer_question_end" clip-path="url(#clip-layer_question_end)">
    <g id="answer" transform="translate(13 461)">
      <g id="container" fill="rgba(183,61,62,0.64)" stroke="#99999b" stroke-width="2">
        <rect width="627" height="67" stroke="none"/>
        <rect x="1" y="1" width="625" height="65" fill="none"/>
      </g>
      <g id="content" transform="translate(-12 -374)">
        <path id="Subtraction_1" data-name="Subtraction 1" d="M-2695,36a15.9,15.9,0,0,1-11.314-4.686A15.9,15.9,0,0,1-2711,20a15.9,15.9,0,0,1,4.686-11.314A15.9,15.9,0,0,1-2695,4a15.894,15.894,0,0,1,11.313,4.687A15.9,15.9,0,0,1-2679,20a15.9,15.9,0,0,1-4.686,11.314A15.894,15.894,0,0,1-2695,36Zm-1.588-21.666a3.4,3.4,0,0,1,2.329.688,2.617,2.617,0,0,1,.762,2.036,3.584,3.584,0,0,1-.235,1.3,4.545,4.545,0,0,1-.71,1.2,9.29,9.29,0,0,1-1.172,1.194c-.469.4-1.014.828-1.619,1.259-.588.422-1.211.9-1.853,1.414a11.9,11.9,0,0,0-1.795,1.8,9.648,9.648,0,0,0-1.362,2.3,7.4,7.4,0,0,0-.542,2.893V32h13.974V28.162h-8.906a1.611,1.611,0,0,1,.293-.864,5.315,5.315,0,0,1,.79-.931,13.116,13.116,0,0,1,1.15-.967c.451-.339.907-.672,1.355-.988.687-.475,1.362-.975,2.006-1.487a10.824,10.824,0,0,0,1.707-1.692,7.96,7.96,0,0,0,1.186-2.051,6.99,6.99,0,0,0,.446-2.579,6.377,6.377,0,0,0-.461-2.468,5.123,5.123,0,0,0-1.341-1.883,6.082,6.082,0,0,0-2.146-1.193,9.182,9.182,0,0,0-2.864-.418,11.186,11.186,0,0,0-6.181,1.772v4.073A7.854,7.854,0,0,1-2696.588,14.334Z" transform="translate(2732 390)" fill="#f8f8f7"/>
      </g>
    </g>
    <g id="answer-2" data-name="answer" transform="translate(13 545)">
      <g id="container-2" data-name="container" fill="rgba(71,168,108,0.48)" stroke="#99999b" stroke-width="2">
        <rect width="627" height="67" stroke="none"/>
        <rect x="1" y="1" width="625" height="65" fill="none"/>
      </g>
      <g id="content-2" data-name="content" transform="translate(-12 -377)">
        <path id="Subtraction_1-2" data-name="Subtraction 1" d="M-2695,36a15.9,15.9,0,0,1-11.314-4.686A15.9,15.9,0,0,1-2711,20a15.9,15.9,0,0,1,4.686-11.314A15.9,15.9,0,0,1-2695,4a15.894,15.894,0,0,1,11.313,4.687A15.9,15.9,0,0,1-2679,20a15.9,15.9,0,0,1-4.686,11.314A15.894,15.894,0,0,1-2695,36Zm-1.427-20.26V32h4.614V10.525h-2.8a19.48,19.48,0,0,1-2.886,1.8,19.336,19.336,0,0,1-3.4,1.347v3.9a9,9,0,0,0,1.246-.242,10.076,10.076,0,0,0,1.216-.41,9.253,9.253,0,0,0,1.105-.542,5.482,5.482,0,0,0,.9-.636Z" transform="translate(2732 390)" fill="#f8f8f7"/>
      </g>
    </g>
    <g id="answer-3" data-name="answer" transform="translate(13 629)">
      <g id="container-3" data-name="container" fill="rgba(183,61,61,0.68)" stroke="#99999b" stroke-width="2">
        <rect width="627" height="67" stroke="none"/>
        <rect x="1" y="1" width="625" height="65" fill="none"/>
      </g>
      <g id="content-3" data-name="content" transform="translate(-12 -377)">
        <path id="Subtraction_1-3" data-name="Subtraction 1" d="M-2695,36a15.9,15.9,0,0,1-11.314-4.686A15.9,15.9,0,0,1-2711,20a15.9,15.9,0,0,1,4.686-11.314A15.9,15.9,0,0,1-2695,4a15.894,15.894,0,0,1,11.313,4.687A15.9,15.9,0,0,1-2679,20a15.9,15.9,0,0,1-4.686,11.314A15.894,15.894,0,0,1-2695,36Zm-.347-27.006h0a34.537,34.537,0,0,1-1.779,3.318c-.694,1.151-1.456,2.311-2.263,3.45s-1.646,2.248-2.519,3.333-1.717,2.081-2.52,2.981v3.618h9.156V30h4.218V25.693h2.52V22.236h-2.52V8.994h-4.292Zm.074,13.243h-5.01c.408-.5.847-1.061,1.3-1.662s.9-1.212,1.333-1.831.864-1.277,1.26-1.919.772-1.293,1.113-1.926v7.338Z" transform="translate(2732 390)" fill="#f8f8f7"/>
      </g>
    </g>
    <g id="answer-4" data-name="answer" transform="translate(14 377)">
      <g id="container-4" data-name="container" fill="rgba(183,61,61,0.68)" stroke="#99999b" stroke-width="2">
        <rect width="627" height="67" stroke="none"/>
        <rect x="1" y="1" width="625" height="65" fill="none"/>
      </g>
      <g id="content-4" data-name="content" transform="translate(-12 -377)">
        <path id="Subtraction_1-4" data-name="Subtraction 1" d="M-2695,36a15.9,15.9,0,0,1-11.314-4.686A15.9,15.9,0,0,1-2711,20a15.9,15.9,0,0,1,4.686-11.314A15.9,15.9,0,0,1-2695,4a15.894,15.894,0,0,1,11.313,4.687A15.9,15.9,0,0,1-2679,20a15.9,15.9,0,0,1-4.686,11.314A15.894,15.894,0,0,1-2695,36Zm-1.427-20.26V32h4.614V10.525h-2.8a19.48,19.48,0,0,1-2.886,1.8,19.336,19.336,0,0,1-3.4,1.347v3.9a9,9,0,0,0,1.246-.242,10.076,10.076,0,0,0,1.216-.41,9.253,9.253,0,0,0,1.105-.542,5.482,5.482,0,0,0,.9-.636Z" transform="translate(2732 390)" fill="#f8f8f7"/>
      </g>
    </g>
  </g>
</svg>
