<svg xmlns="http://www.w3.org/2000/svg" xmlns:xlink="http://www.w3.org/1999/xlink" width="1280" height="720" viewBox="0 0 1280 720"><defs><clipPath id="b"><rect width="1280" height="720"/></clipPath></defs><g id="a" clip-path="url(#b)"><text transform="translate(17 16)" fill="#fff" font-size="18" font-family="SegoeUI-Semibold, Segoe UI" font-weight="600"><tspan x="0" y="19">Leaderboard</tspan></text><text transform="translate(566)" fill="#fff" font-size="40" font-family="SegoeUI-Semibold, Segoe UI" font-weight="600"><tspan x="0" y="43">Winners</tspan></text><g transform="translate(7 189)"><g transform="translate(14 13)" fill="#fff" stroke="#86ab9a" stroke-width="1"><rect width="586" height="67" rx="5" stroke="none"/><rect x="0.5" y="0.5" width="585" height="66" rx="4.5" fill="none"/></g><g fill="#fff" stroke="#86ab9a" stroke-width="1"><circle cx="16" cy="16" r="16" stroke="none"/><circle cx="16" cy="16" r="15.5" fill="none"/></g><text transform="translate(10 4)" fill="#86ab9a" font-size="18" font-family="SegoeUI-Semibold, Segoe UI" font-weight="600"><tspan x="0" y="19">2</tspan></text></g><g transform="translate(652 189)"><g transform="translate(14 13)" fill="#fff" stroke="#86ab9a" stroke-width="1"><rect width="586" height="67" rx="5" stroke="none"/><rect x="0.5" y="0.5" width="585" height="66" rx="4.5" fill="none"/></g><g fill="#fff" stroke="#86ab9a" stroke-width="1"><circle cx="16" cy="16" r="16" stroke="none"/><circle cx="16" cy="16" r="15.5" fill="none"/></g><text transform="translate(12 4)" fill="#86ab9a" font-size="18" font-family="SegoeUI-Semibold, Segoe UI" font-weight="600"><tspan x="0" y="19">3</tspan></text></g><g transform="translate(326 107)"><g transform="translate(14 13)" fill="#fff" stroke="#86ab9a" stroke-width="1"><rect width="586" height="67" rx="5" stroke="none"/><rect x="0.5" y="0.5" width="585" height="66" rx="4.5" fill="none"/></g><g fill="#fff" stroke="#86ab9a" stroke-width="1"><circle cx="16" cy="16" r="16" stroke="none"/><circle cx="16" cy="16" r="15.5" fill="none"/></g><text transform="translate(12 4)" fill="#86ab9a" font-size="18" font-family="SegoeUI-Semibold, Segoe UI" font-weight="600"><tspan x="0" y="19">1</tspan></text></g><text transform="translate(547 279)" fill="#f5f5f5" font-size="32" font-family="SegoeUI-Semibold, Segoe UI" font-weight="600"><tspan x="0" y="35">Other players</tspan></text><g transform="translate(857 331)"><g transform="translate(14 13)" fill="#fff" stroke="#5d58a1" stroke-width="1"><rect width="386" height="67" rx="5" stroke="none"/><rect x="0.5" y="0.5" width="385" height="66" rx="4.5" fill="none"/></g><g fill="#fff" stroke="#5d58a1" stroke-width="1"><circle cx="16" cy="16" r="16" stroke="none"/><circle cx="16" cy="16" r="15.5" fill="none"/></g><text transform="translate(10 4)" fill="#5d58a1" font-size="18" font-family="SegoeUI-Semibold, Segoe UI" font-weight="600"><tspan x="0" y="19">6</tspan></text></g><g transform="translate(7 451)"><g transform="translate(14 13)" fill="#fff" stroke="#5d58a1" stroke-width="1"><rect width="386" height="67" rx="5" stroke="none"/><rect x="0.5" y="0.5" width="385" height="66" rx="4.5" fill="none"/></g><g fill="#fff" stroke="#5d58a1" stroke-width="1"><circle cx="16" cy="16" r="16" stroke="none"/><circle cx="16" cy="16" r="15.5" fill="none"/></g><text transform="translate(10 4)" fill="#5d58a1" font-size="18" font-family="SegoeUI-Semibold, Segoe UI" font-weight="600"><tspan x="0" y="19">7</tspan></text></g><g transform="translate(857 451)"><g transform="translate(14 13)" fill="#fff" stroke="#5d58a1" stroke-width="1"><rect width="386" height="67" rx="5" stroke="none"/><rect x="0.5" y="0.5" width="385" height="66" rx="4.5" fill="none"/></g><g fill="#fff" stroke="#5d58a1" stroke-width="1"><circle cx="16" cy="16" r="16" stroke="none"/><circle cx="16" cy="16" r="15.5" fill="none"/></g><text transform="translate(10 4)" fill="#5d58a1" font-size="18" font-family="SegoeUI-Semibold, Segoe UI" font-weight="600"><tspan x="0" y="19">9</tspan></text></g><g transform="translate(432 451)"><g transform="translate(14 13)" fill="#fff" stroke="#5d58a1" stroke-width="1"><rect width="386" height="67" rx="5" stroke="none"/><rect x="0.5" y="0.5" width="385" height="66" rx="4.5" fill="none"/></g><g fill="#fff" stroke="#5d58a1" stroke-width="1"><circle cx="16" cy="16" r="16" stroke="none"/><circle cx="16" cy="16" r="15.5" fill="none"/></g><text transform="translate(10 4)" fill="#5d58a1" font-size="18" font-family="SegoeUI-Semibold, Segoe UI" font-weight="600"><tspan x="0" y="19">8</tspan></text></g><g transform="translate(432 331)"><g transform="translate(14 13)" fill="#fff" stroke="#5d58a1" stroke-width="1"><rect width="386" height="67" rx="5" stroke="none"/><rect x="0.5" y="0.5" width="385" height="66" rx="4.5" fill="none"/></g><g fill="#fff" stroke="#5d58a1" stroke-width="1"><circle cx="16" cy="16" r="16" stroke="none"/><circle cx="16" cy="16" r="15.5" fill="none"/></g><text transform="translate(10 4)" fill="#5d58a1" font-size="18" font-family="SegoeUI-Semibold, Segoe UI" font-weight="600"><tspan x="0" y="19">5</tspan></text></g><g transform="translate(7 571)"><g transform="translate(14 13)" fill="#fff" stroke="#5d58a1" stroke-width="1"><rect width="386" height="67" rx="5" stroke="none"/><rect x="0.5" y="0.5" width="385" height="66" rx="4.5" fill="none"/></g><g fill="#fff" stroke="#5d58a1" stroke-width="1"><circle cx="16" cy="16" r="16" stroke="none"/><circle cx="16" cy="16" r="15.5" fill="none"/></g><text transform="translate(8 5)" fill="#5d58a1" font-size="18" font-family="SegoeUI-Semibold, Segoe UI" font-weight="600"><tspan x="0" y="19">10</tspan></text></g><g transform="translate(432 571)"><g transform="translate(14 13)" fill="#fff" stroke="#5d58a1" stroke-width="1"><rect width="386" height="67" rx="5" stroke="none"/><rect x="0.5" y="0.5" width="385" height="66" rx="4.5" fill="none"/></g><g fill="#fff" stroke="#5d58a1" stroke-width="1"><circle cx="16" cy="16" r="16" stroke="none"/><circle cx="16" cy="16" r="15.5" fill="none"/></g><text transform="translate(8 5)" fill="#5d58a1" font-size="18" font-family="SegoeUI-Semibold, Segoe UI" font-weight="600"><tspan x="0" y="19">11</tspan></text></g><g transform="translate(857 571)"><g transform="translate(14 13)" fill="#fff" stroke="#5d58a1" stroke-width="1"><rect width="386" height="67" rx="5" stroke="none"/><rect x="0.5" y="0.5" width="385" height="66" rx="4.5" fill="none"/></g><g fill="#fff" stroke="#5d58a1" stroke-width="1"><circle cx="16" cy="16" r="16" stroke="none"/><circle cx="16" cy="16" r="15.5" fill="none"/></g><text transform="translate(7 3)" fill="#5d58a1" font-size="18" font-family="SegoeUI-Semibold, Segoe UI" font-weight="600"><tspan x="0" y="19">12</tspan></text></g><g transform="translate(7 331)"><g transform="translate(14 13)" fill="#fff" stroke="#5d58a1" stroke-width="1"><rect width="386" height="67" rx="5" stroke="none"/><rect x="0.5" y="0.5" width="385" height="66" rx="4.5" fill="none"/></g><g fill="#fff" stroke="#5d58a1" stroke-width="1"><circle cx="16" cy="16" r="16" stroke="none"/><circle cx="16" cy="16" r="15.5" fill="none"/></g><text transform="translate(10 4)" fill="#5d58a1" font-size="18" font-family="SegoeUI-Semibold, Segoe UI" font-weight="600"><tspan x="0" y="19">4</tspan></text></g></g></svg>