<svg xmlns="http://www.w3.org/2000/svg" xmlns:xlink="http://www.w3.org/1999/xlink" width="1280" height="720" viewBox="0 0 1280 720"><defs><clipPath id="b"><rect width="1280" height="720"/></clipPath></defs><g id="a" clip-path="url(#b)"><rect width="1280" height="720" fill="rgba(255,255,255,0)"/><text transform="translate(217 206)" fill="rgba(255,255,255,0)" font-size="45" font-family="SegoeUI, Segoe UI"><tspan x="0" y="49">In which country did Halloween originate</tspan></text><circle cx="50" cy="50" r="50" transform="translate(590 23)" fill="#2441fa"/><text transform="translate(615 37)" fill="rgba(255,255,255,0)" font-size="45" font-family="SegoeUI, Segoe UI"><tspan x="0" y="49">00</tspan></text><text transform="translate(19 14)" fill="rgba(255,255,255,0)" font-size="22" font-family="SegoeUI, Segoe UI"><tspan x="0" y="24">Round 1/13</tspan></text><g transform="translate(650 476)"><rect width="613" height="94" fill="#f5f5f5"/><g transform="translate(-20 -473)"><g transform="translate(0 2)"><circle cx="22.5" cy="22.5" r="22.5" transform="translate(29 500)" fill="#1e35cd"/><text transform="translate(43 502)" fill="#fff" font-size="30" font-family="SegoeUI, Segoe UI"><tspan x="0" y="32">2</tspan></text></g></g></g><g transform="translate(650 591)"><rect width="613" height="94" fill="#f5f5f5"/><g transform="translate(-20 -473)"><g transform="translate(0 2)"><circle cx="22.5" cy="22.5" r="22.5" transform="translate(29 500)" fill="#1e35cd"/><text transform="translate(43 502)" fill="#fff" font-size="30" font-family="SegoeUI, Segoe UI"><tspan x="0" y="32">4</tspan></text></g></g></g><g transform="translate(20 476)"><rect width="613" height="94" fill="#f5f5f5"/><g transform="translate(-20 -473)"><g transform="translate(0 2)"><circle cx="22.5" cy="22.5" r="22.5" transform="translate(29 500)" fill="#1e35cd"/><text transform="translate(43 502)" fill="#fff" font-size="30" font-family="SegoeUI, Segoe UI"><tspan x="0" y="32">1</tspan></text></g></g></g><g transform="translate(20 591)"><rect width="613" height="94" fill="#f5f5f5"/><g transform="translate(-20 -473)"><g transform="translate(0 2)"><circle cx="22.5" cy="22.5" r="22.5" transform="translate(29 500)" fill="#1e35cd"/><text transform="translate(43 502)" fill="#fff" font-size="30" font-family="SegoeUI, Segoe UI"><tspan x="0" y="32">3</tspan></text></g></g></g><text transform="translate(403 687)" fill="#fff" font-size="20" font-family="SegoeUI, Segoe UI"><tspan x="0" y="22">Comment 1,2,3 or 4 to answer. One entry per second</tspan></text></g></svg>